<?xml version="1.0" encoding="UTF-8" standalone="no"?>
<!-- Created with Inkscape (http://www.inkscape.org/) -->

<svg
   xmlns:dc="http://purl.org/dc/elements/1.1/"
   xmlns:cc="http://creativecommons.org/ns#"
   xmlns:rdf="http://www.w3.org/1999/02/22-rdf-syntax-ns#"
   xmlns:svg="http://www.w3.org/2000/svg"
   xmlns="http://www.w3.org/2000/svg"
   xmlns:sodipodi="http://sodipodi.sourceforge.net/DTD/sodipodi-0.dtd"
   xmlns:inkscape="http://www.inkscape.org/namespaces/inkscape"
   width="208.27159mm"
   height="217.10373mm"
   viewBox="0 0 737.9702 769.26518"
   id="svg2"
   version="1.1"
   inkscape:version="0.91 r13725"
   sodipodi:docname="logo-normal-no-background.svg">
  <defs
     id="defs4" />
  <sodipodi:namedview
     id="base"
     pagecolor="#ffffff"
     bordercolor="#666666"
     borderopacity="1.0"
     inkscape:pageopacity="0.0"
     inkscape:pageshadow="2"
     inkscape:zoom="0.5"
     inkscape:cx="362.43828"
     inkscape:cy="276.77861"
     inkscape:document-units="px"
     inkscape:current-layer="layer1"
     showgrid="false"
     inkscape:window-width="1280"
     inkscape:window-height="975"
     inkscape:window-x="0"
     inkscape:window-y="0"
     inkscape:window-maximized="1"
     fit-margin-top="10"
     fit-margin-left="10"
     fit-margin-right="10"
     fit-margin-bottom="10" />
  <metadata
     id="metadata7">
    <rdf:RDF>
      <cc:Work
         rdf:about="">
        <dc:format>image/svg+xml</dc:format>
        <dc:type
           rdf:resource="http://purl.org/dc/dcmitype/StillImage" />
        <dc:title></dc:title>
      </cc:Work>
    </rdf:RDF>
  </metadata>
  <g
     inkscape:label="Layer 1"
     inkscape:groupmode="layer"
     id="layer1"
     transform="translate(-5.670862,-94.487268)">
    <g
       id="g4262"
       transform="matrix(0.95709379,0,0,0.95709379,37.075828,7.4477039)"
       style="fill:#000000">
      <path
         inkscape:connector-curvature="0"
         id="path4252"
         d="m 73.233399,268.24486 0,0.0129 -0.0129,0.0129 -0.245765,0.19513 -6.72137,5.38592 c -3.833636,3.06738 -6.979519,5.58108 -6.98597,5.58753 l 0,0.006 -0.863014,0.68033 -6.236323,4.99534 -5.474131,4.37806 -1.631529,1.30394 -39.4022806,31.53446 -1.4047605,1.12759 c -0.00113,9.6e-4 -0.043541,0.0322 -0.044186,0.0322 -0.022577,0.0226 0.3571004,0.0258 2.7842994,0.0258 l 2.8094886,0 0,-0.006 0.00645,0 63.3964471,0 0.0258,0 0,0.0322 68.643785,0 0,430.06147 241.86272,0 0,48.81981 0.0755,0 0,0.0503 -0.0129,0 0,11.1183 -0.0129,11.14981 -0.0503,0 0,9.36082 0,9.36079 0.0323,0 0,0.0129 -0.0323,0 0,7.09305 c 0,3.90118 0.003,7.09305 0.006,7.09305 l 0.006,-0.006 c 0.0194,-0.01 17.67888,-14.12866 17.71372,-14.16088 l -0.0129,0 0.0503,-0.0377 c 0.0322,-0.0226 3.4228,-2.73131 7.5781,-6.05365 l 7.57809,-6.05996 -0.0129,0 0.0193,-0.0194 0.0129,0 7.28205,-5.82688 c 4.00677,-3.20533 7.29137,-5.83626 7.29459,-5.83949 l 0.0323,-0.0258 10.70256,-8.5608 c 5.88716,-4.70846 10.71469,-8.57615 10.73404,-8.59228 l 0.0755,-0.0568 0.0194,0 0.0258,0 0,-0.0194 0,-64.94609 C 394.37506,735.62832 344.25183,722.58551 302.50543,698.30749 l -91.52294,0 0,-93.61433 c -22.05582,-40.48506 -33.09668,-88.44947 -33.09668,-143.90817 0,-55.61406 11.04086,-103.63391 33.09668,-144.07195 l 0,-48.46706 -137.734803,0 -0.0129,0 z"
         style="fill:#000000;fill-opacity:1;stroke:#010000;stroke-width:0.00322526;stroke-miterlimit:4;stroke-dasharray:none;stroke-opacity:1" />
      <g
         transform="matrix(3.2252565,0,0,3.2252565,-1177.3094,-1747.2444)"
         id="g4256"
         style="fill:#000000">
        <path
           inkscape:connector-curvature="0"
           style="fill:#000000;fill-opacity:1;stroke:#010000;stroke-width:0.001;stroke-miterlimit:4;stroke-dasharray:none;stroke-opacity:1"
           d="m 531.30078,581.41406 c -27.58552,0 -49.44013,7.72683 -65.5625,23.1836 -1.68337,1.60615 -3.27364,3.2768 -4.78125,5.0039 13.57722,-7.36045 29.88204,-11.04297 48.91797,-11.04297 9.24448,0 18.12008,1.03471 26.625,3.10547 8.50492,2.07076 16.67631,5.14141 24.51562,9.20899 l 0,5.94922 c 0.003,9e-4 0.005,10e-4 0.008,0.002 l 0,8.73047 -0.004,0 0,3.24609 0,3.2461 -0.004,0 0,4.93359 0.008,0 0,1.00586 -0.004,0 0,3.5625 0,3.5625 0.875,-0.69922 c 1.20052,-0.95848 8.01044,-6.40392 8.02344,-6.41602 l -0.004,0 0.008,-0.006 0.006,0 2.26758,-1.8125 0.875,-0.69921 9.36914,-7.47461 c 0,0 0.002,0.002 0.002,0.002 l 0,-0.004 0,-34.27539 c -7.83932,-4.06757 -16.01071,-7.13627 -24.51563,-9.20703 -8.50492,-2.07077 -17.38052,-3.10547 -26.625,-3.10547 z"
           id="path4254" />
        <path
           inkscape:connector-curvature="0"
           style="fill:#000000;fill-opacity:1;stroke:#010000;stroke-width:0.001;stroke-miterlimit:4;stroke-dasharray:none;stroke-opacity:1"
           d="m 494.58398,632.53906 c -6.70488,2.41989 -12.44812,6.28321 -17.21289,11.61328 -8.72678,9.76217 -13.08984,23.22311 -13.08984,40.38086 0,17.0838 4.36306,30.50541 13.08984,40.26758 8.7268,9.76217 20.70847,14.64453 35.94336,14.64453 8.50492,0 16.60352,-1.25893 24.29493,-3.77343 7.6914,-2.5145 15.49297,-6.47037 23.40624,-11.86915 l 0,25.53907 c 10e-4,-3.8e-4 0.003,-0.002 0.004,-0.002 l 0,6.29297 -0.004,0 0,1.21875 c 10e-6,0.7721 0.002,0.70521 0.004,0.80664 l 0,0.39453 0.002,-0.002 c 7e-5,-4e-5 -6e-5,0.0118 0,0.0117 0.004,-0.003 0.68545,-0.54865 1.51368,-1.21094 0.82822,-0.66228 1.50967,-1.20693 1.51367,-1.21094 6e-5,-4e-5 -0.0118,6e-5 -0.0117,0 l 0.008,-0.006 0.008,0 5.35352,-4.28125 c 2.9455,-2.3555 5.6434,-4.51271 5.99414,-4.79297 l 0.63672,-0.50977 0.01,-0.01 6.3789,-5.09571 c 0.003,-0.002 0.006,-0.004 0.01,-0.006 0.002,-10e-4 0.004,-0.003 0.006,-0.004 l 0,-0.004 0,-34.27344 c -7.91328,5.39878 -15.71485,9.35464 -23.40625,11.86914 -7.69141,2.5145 -15.79001,3.77149 -24.29493,3.77149 -15.23489,0 -27.21657,-4.88041 -35.94335,-14.64258 -8.72679,-9.76217 -13.08985,-23.18574 -13.08985,-40.26953 0,-14.12395 2.96351,-25.7354 8.87695,-34.84766 z"
           id="path4229" />
      </g>
    </g>
  </g>
</svg>
